<mxfile host="65bd71144e">
    <diagram id="X1FvW10eCV6ILjRPC6_l" name="Page-1">
        <mxGraphModel dx="2408" dy="1542" grid="0" gridSize="10" guides="1" tooltips="1" connect="1" arrows="1" fold="1" page="0" pageScale="1" pageWidth="850" pageHeight="1100" math="0" shadow="0">
            <root>
                <mxCell id="0"/>
                <mxCell id="1" parent="0"/>
                <mxCell id="24" value="Kund" style="rounded=0;whiteSpace=wrap;html=1;" parent="1" vertex="1">
                    <mxGeometry x="341" y="748" width="120" height="60" as="geometry"/>
                </mxCell>
                <mxCell id="26" value="Produkt" style="rounded=0;whiteSpace=wrap;html=1;" parent="1" vertex="1">
                    <mxGeometry x="221" y="-9.849999999999994" width="120" height="60" as="geometry"/>
                </mxCell>
                <mxCell id="27" value="Leverantör" style="rounded=0;whiteSpace=wrap;html=1;fontSize=16;" parent="1" vertex="1">
                    <mxGeometry x="-240" y="-21.999999999999993" width="120" height="60" as="geometry"/>
                </mxCell>
                <mxCell id="34" value="&lt;font style=&quot;font-size: 14px;&quot;&gt;&lt;u&gt;Leverantör-ID&lt;/u&gt;&lt;/font&gt;" style="ellipse;whiteSpace=wrap;html=1;fontSize=16;" parent="1" vertex="1">
                    <mxGeometry x="-432" y="-116" width="120" height="80" as="geometry"/>
                </mxCell>
                <mxCell id="35" value="&lt;font style=&quot;font-size: 14px;&quot;&gt;Namn&lt;/font&gt;" style="ellipse;whiteSpace=wrap;html=1;fontSize=16;" parent="1" vertex="1">
                    <mxGeometry x="-417" y="50.849999999999994" width="120" height="80" as="geometry"/>
                </mxCell>
                <mxCell id="39" value="läggs ut på" style="rhombus;whiteSpace=wrap;html=1;fontSize=16;" parent="1" vertex="1">
                    <mxGeometry x="490" y="18" width="110" height="80" as="geometry"/>
                </mxCell>
                <mxCell id="43" value="&lt;u&gt;Personnummer&lt;/u&gt;" style="ellipse;whiteSpace=wrap;html=1;fontSize=16;" parent="1" vertex="1">
                    <mxGeometry x="16" y="808" width="130" height="60" as="geometry"/>
                </mxCell>
                <mxCell id="45" value="Förnamn" style="ellipse;whiteSpace=wrap;html=1;fontSize=16;" parent="1" vertex="1">
                    <mxGeometry x="242" y="996" width="120" height="80" as="geometry"/>
                </mxCell>
                <mxCell id="46" value="Efternamn" style="ellipse;whiteSpace=wrap;html=1;fontSize=16;" parent="1" vertex="1">
                    <mxGeometry x="102" y="937" width="120" height="80" as="geometry"/>
                </mxCell>
                <mxCell id="49" value="Address" style="ellipse;whiteSpace=wrap;html=1;fontSize=16;" parent="1" vertex="1">
                    <mxGeometry x="420" y="996" width="120" height="80" as="geometry"/>
                </mxCell>
                <mxCell id="50" value="&lt;u&gt;ProduktID&lt;/u&gt;" style="ellipse;whiteSpace=wrap;html=1;fontSize=16;" parent="1" vertex="1">
                    <mxGeometry x="-2" y="-180.85" width="120" height="80" as="geometry"/>
                </mxCell>
                <mxCell id="53" value="Provision" style="ellipse;whiteSpace=wrap;html=1;fontSize=16;" parent="1" vertex="1">
                    <mxGeometry x="142" y="-240.85" width="120" height="80" as="geometry"/>
                </mxCell>
                <mxCell id="57" value="Kategori" style="ellipse;whiteSpace=wrap;html=1;fontSize=16;" parent="1" vertex="1">
                    <mxGeometry x="287" y="-244.85" width="120" height="80" as="geometry"/>
                </mxCell>
                <mxCell id="59" value="Telefonnummer" style="ellipse;whiteSpace=wrap;html=1;fontSize=16;" parent="1" vertex="1">
                    <mxGeometry x="605" y="952" width="120" height="80" as="geometry"/>
                </mxCell>
                <mxCell id="60" value="Auktion" style="rounded=0;whiteSpace=wrap;html=1;" parent="1" vertex="1">
                    <mxGeometry x="790" y="69" width="120" height="60" as="geometry"/>
                </mxCell>
                <mxCell id="64" value="&lt;u&gt;AuktionID&lt;/u&gt;" style="ellipse;whiteSpace=wrap;html=1;fontSize=16;" parent="1" vertex="1">
                    <mxGeometry x="593" y="-77" width="120" height="80" as="geometry"/>
                </mxCell>
                <mxCell id="66" value="StartDatum" style="ellipse;whiteSpace=wrap;html=1;fontSize=16;" parent="1" vertex="1">
                    <mxGeometry x="713" y="-151" width="120" height="80" as="geometry"/>
                </mxCell>
                <mxCell id="69" value="Läggs till" style="rhombus;whiteSpace=wrap;html=1;fontSize=16;" parent="1" vertex="1">
                    <mxGeometry x="-18" y="-35.99999999999999" width="120" height="80" as="geometry"/>
                </mxCell>
                <mxCell id="75" value="Läggs" style="rhombus;whiteSpace=wrap;html=1;fontSize=16;" parent="1" vertex="1">
                    <mxGeometry x="822" y="222" width="120" height="80" as="geometry"/>
                </mxCell>
                <mxCell id="79" style="edgeStyle=none;curved=1;rounded=0;orthogonalLoop=1;jettySize=auto;html=1;exitX=0;exitY=1;exitDx=0;exitDy=0;fontSize=12;startSize=8;endSize=8;" parent="1" source="64" target="64" edge="1">
                    <mxGeometry relative="1" as="geometry"/>
                </mxCell>
                <mxCell id="81" value="" style="endArrow=none;html=1;" parent="1" source="24" target="46" edge="1">
                    <mxGeometry width="50" height="50" relative="1" as="geometry">
                        <mxPoint x="162" y="977" as="sourcePoint"/>
                        <mxPoint x="733.1347545946901" y="1030.2109915675221" as="targetPoint"/>
                    </mxGeometry>
                </mxCell>
                <mxCell id="82" value="" style="endArrow=none;html=1;exitX=0;exitY=0.5;exitDx=0;exitDy=0;" parent="1" source="24" target="43" edge="1">
                    <mxGeometry width="50" height="50" relative="1" as="geometry">
                        <mxPoint x="632" y="1017" as="sourcePoint"/>
                        <mxPoint x="682" y="967" as="targetPoint"/>
                    </mxGeometry>
                </mxCell>
                <mxCell id="83" value="" style="endArrow=none;html=1;" parent="1" source="24" target="45" edge="1">
                    <mxGeometry width="50" height="50" relative="1" as="geometry">
                        <mxPoint x="162" y="977" as="sourcePoint"/>
                        <mxPoint x="742.3113509594823" y="1112.9303193836008" as="targetPoint"/>
                    </mxGeometry>
                </mxCell>
                <mxCell id="84" value="" style="endArrow=none;html=1;exitX=0;exitY=0;exitDx=0;exitDy=0;entryX=0.5;entryY=1;entryDx=0;entryDy=0;" parent="1" source="49" target="24" edge="1">
                    <mxGeometry width="50" height="50" relative="1" as="geometry">
                        <mxPoint x="162" y="1197" as="sourcePoint"/>
                        <mxPoint x="212" y="1147" as="targetPoint"/>
                    </mxGeometry>
                </mxCell>
                <mxCell id="85" value="" style="endArrow=none;html=1;" parent="1" source="59" target="24" edge="1">
                    <mxGeometry width="50" height="50" relative="1" as="geometry">
                        <mxPoint x="725.9067232241578" y="1181.3926240134208" as="sourcePoint"/>
                        <mxPoint x="212" y="1147" as="targetPoint"/>
                    </mxGeometry>
                </mxCell>
                <mxCell id="87" value="" style="endArrow=none;html=1;" parent="1" source="66" target="60" edge="1">
                    <mxGeometry width="50" height="50" relative="1" as="geometry">
                        <mxPoint x="885" y="197" as="sourcePoint"/>
                        <mxPoint x="905" y="77" as="targetPoint"/>
                    </mxGeometry>
                </mxCell>
                <mxCell id="92" value="" style="endArrow=none;html=1;" parent="1" source="26" edge="1">
                    <mxGeometry width="50" height="50" relative="1" as="geometry">
                        <mxPoint x="236.38" y="117.65" as="sourcePoint"/>
                        <mxPoint x="335.40461131853044" y="-161.6040690781018" as="targetPoint"/>
                    </mxGeometry>
                </mxCell>
                <mxCell id="93" value="" style="endArrow=none;html=1;" parent="1" source="26" target="53" edge="1">
                    <mxGeometry width="50" height="50" relative="1" as="geometry">
                        <mxPoint x="236.38" y="117.65" as="sourcePoint"/>
                        <mxPoint x="286.38" y="67.65" as="targetPoint"/>
                    </mxGeometry>
                </mxCell>
                <mxCell id="96" value="" style="endArrow=none;html=1;" parent="1" source="34" target="27" edge="1">
                    <mxGeometry width="50" height="50" relative="1" as="geometry">
                        <mxPoint x="157" y="85" as="sourcePoint"/>
                        <mxPoint x="207" y="35" as="targetPoint"/>
                    </mxGeometry>
                </mxCell>
                <mxCell id="97" value="" style="endArrow=none;html=1;" parent="1" source="35" target="27" edge="1">
                    <mxGeometry width="50" height="50" relative="1" as="geometry">
                        <mxPoint x="-289" y="97.85" as="sourcePoint"/>
                        <mxPoint x="207" y="35" as="targetPoint"/>
                    </mxGeometry>
                </mxCell>
                <mxCell id="98" value="" style="endArrow=none;html=1;entryX=0.25;entryY=0;entryDx=0;entryDy=0;" parent="1" source="50" target="26" edge="1">
                    <mxGeometry width="50" height="50" relative="1" as="geometry">
                        <mxPoint x="227" y="-24.849999999999994" as="sourcePoint"/>
                        <mxPoint x="277" y="-74.85" as="targetPoint"/>
                    </mxGeometry>
                </mxCell>
                <mxCell id="101" value="1" style="endArrow=none;html=1;" edge="1" parent="1" source="27" target="69">
                    <mxGeometry width="50" height="50" relative="1" as="geometry">
                        <mxPoint x="-1" y="108" as="sourcePoint"/>
                        <mxPoint x="319" y="73" as="targetPoint"/>
                    </mxGeometry>
                </mxCell>
                <mxCell id="102" value="N" style="endArrow=none;html=1;exitX=1;exitY=0.5;exitDx=0;exitDy=0;" edge="1" parent="1" source="69" target="26">
                    <mxGeometry width="50" height="50" relative="1" as="geometry">
                        <mxPoint x="309" y="184.15" as="sourcePoint"/>
                        <mxPoint x="359" y="134.15" as="targetPoint"/>
                    </mxGeometry>
                </mxCell>
                <mxCell id="103" value="" style="endArrow=none;html=1;entryX=0;entryY=0.5;entryDx=0;entryDy=0;" edge="1" parent="1" source="64" target="60">
                    <mxGeometry width="50" height="50" relative="1" as="geometry">
                        <mxPoint x="472" y="309" as="sourcePoint"/>
                        <mxPoint x="522" y="259" as="targetPoint"/>
                    </mxGeometry>
                </mxCell>
                <mxCell id="104" value="SlutDatum" style="ellipse;whiteSpace=wrap;html=1;fontSize=16;" vertex="1" parent="1">
                    <mxGeometry x="879" y="-184" width="120" height="80" as="geometry"/>
                </mxCell>
                <mxCell id="105" value="isBid" style="ellipse;whiteSpace=wrap;html=1;fontSize=16;" vertex="1" parent="1">
                    <mxGeometry x="1206" y="13" width="120" height="80" as="geometry"/>
                </mxCell>
                <mxCell id="106" value="Utgangpris" style="ellipse;whiteSpace=wrap;html=1;fontSize=16;" vertex="1" parent="1">
                    <mxGeometry x="994" y="-143" width="120" height="80" as="geometry"/>
                </mxCell>
                <mxCell id="107" value="Acceptpris" style="ellipse;whiteSpace=wrap;html=1;fontSize=16;" vertex="1" parent="1">
                    <mxGeometry x="1121" y="-91" width="120" height="80" as="geometry"/>
                </mxCell>
                <mxCell id="108" value="" style="endArrow=none;html=1;" edge="1" parent="1" source="104" target="60">
                    <mxGeometry width="50" height="50" relative="1" as="geometry">
                        <mxPoint x="472" y="309" as="sourcePoint"/>
                        <mxPoint x="522" y="259" as="targetPoint"/>
                    </mxGeometry>
                </mxCell>
                <mxCell id="109" value="highestbidder" style="ellipse;whiteSpace=wrap;html=1;fontSize=16;" vertex="1" parent="1">
                    <mxGeometry x="1222" y="115" width="120" height="80" as="geometry"/>
                </mxCell>
                <mxCell id="110" value="maxBid" style="ellipse;whiteSpace=wrap;html=1;fontSize=16;" vertex="1" parent="1">
                    <mxGeometry x="1174" y="217" width="120" height="80" as="geometry"/>
                </mxCell>
                <mxCell id="111" value="" style="endArrow=none;html=1;" edge="1" parent="1" source="106" target="60">
                    <mxGeometry width="50" height="50" relative="1" as="geometry">
                        <mxPoint x="853" y="309" as="sourcePoint"/>
                        <mxPoint x="903" y="259" as="targetPoint"/>
                    </mxGeometry>
                </mxCell>
                <mxCell id="112" value="" style="endArrow=none;html=1;" edge="1" parent="1" source="107" target="60">
                    <mxGeometry width="50" height="50" relative="1" as="geometry">
                        <mxPoint x="853" y="309" as="sourcePoint"/>
                        <mxPoint x="903" y="259" as="targetPoint"/>
                    </mxGeometry>
                </mxCell>
                <mxCell id="113" value="" style="endArrow=none;html=1;" edge="1" parent="1" source="110" target="60">
                    <mxGeometry width="50" height="50" relative="1" as="geometry">
                        <mxPoint x="853" y="309" as="sourcePoint"/>
                        <mxPoint x="903" y="259" as="targetPoint"/>
                    </mxGeometry>
                </mxCell>
                <mxCell id="114" value="" style="endArrow=none;html=1;" edge="1" parent="1" source="109" target="60">
                    <mxGeometry width="50" height="50" relative="1" as="geometry">
                        <mxPoint x="853" y="309" as="sourcePoint"/>
                        <mxPoint x="903" y="259" as="targetPoint"/>
                    </mxGeometry>
                </mxCell>
                <mxCell id="115" value="" style="endArrow=none;html=1;" edge="1" parent="1" source="105" target="60">
                    <mxGeometry width="50" height="50" relative="1" as="geometry">
                        <mxPoint x="853" y="309" as="sourcePoint"/>
                        <mxPoint x="903" y="259" as="targetPoint"/>
                    </mxGeometry>
                </mxCell>
                <mxCell id="117" value="1" style="endArrow=none;html=1;entryX=0;entryY=0;entryDx=0;entryDy=0;" edge="1" parent="1" source="26" target="39">
                    <mxGeometry width="50" height="50" relative="1" as="geometry">
                        <mxPoint x="689" y="163.15" as="sourcePoint"/>
                        <mxPoint x="496.3742550655543" y="-12.032359952324299" as="targetPoint"/>
                    </mxGeometry>
                </mxCell>
                <mxCell id="118" value="N&lt;br&gt;" style="endArrow=none;html=1;" edge="1" parent="1" source="39" target="60">
                    <mxGeometry width="50" height="50" relative="1" as="geometry">
                        <mxPoint x="716" y="309" as="sourcePoint"/>
                        <mxPoint x="766" y="259" as="targetPoint"/>
                    </mxGeometry>
                </mxCell>
                <mxCell id="121" value="Auktionsbud" style="rounded=0;whiteSpace=wrap;html=1;" vertex="1" parent="1">
                    <mxGeometry x="843" y="407" width="120" height="60" as="geometry"/>
                </mxCell>
                <mxCell id="123" value="Tidstampel" style="ellipse;whiteSpace=wrap;html=1;fontSize=16;" vertex="1" parent="1">
                    <mxGeometry x="1058" y="560" width="120" height="80" as="geometry"/>
                </mxCell>
                <mxCell id="124" value="Bud" style="ellipse;whiteSpace=wrap;html=1;fontSize=16;" vertex="1" parent="1">
                    <mxGeometry x="925" y="630" width="120" height="80" as="geometry"/>
                </mxCell>
                <mxCell id="125" value="&lt;u&gt;AuktionbudID&lt;/u&gt;" style="ellipse;whiteSpace=wrap;html=1;fontSize=16;" vertex="1" parent="1">
                    <mxGeometry x="755" y="646" width="120" height="80" as="geometry"/>
                </mxCell>
                <mxCell id="126" value="" style="endArrow=none;html=1;" edge="1" parent="1" source="123" target="121">
                    <mxGeometry width="50" height="50" relative="1" as="geometry">
                        <mxPoint x="789" y="357" as="sourcePoint"/>
                        <mxPoint x="839" y="307" as="targetPoint"/>
                    </mxGeometry>
                </mxCell>
                <mxCell id="127" value="" style="endArrow=none;html=1;" edge="1" parent="1" source="124" target="121">
                    <mxGeometry width="50" height="50" relative="1" as="geometry">
                        <mxPoint x="789" y="357" as="sourcePoint"/>
                        <mxPoint x="1020" y="447" as="targetPoint"/>
                    </mxGeometry>
                </mxCell>
                <mxCell id="128" value="" style="endArrow=none;html=1;exitX=0.658;exitY=0;exitDx=0;exitDy=0;exitPerimeter=0;" edge="1" parent="1" source="125" target="121">
                    <mxGeometry width="50" height="50" relative="1" as="geometry">
                        <mxPoint x="789" y="357" as="sourcePoint"/>
                        <mxPoint x="839" y="307" as="targetPoint"/>
                    </mxGeometry>
                </mxCell>
                <mxCell id="131" value="N" style="endArrow=none;html=1;exitX=0.5;exitY=0;exitDx=0;exitDy=0;" edge="1" parent="1" source="121" target="75">
                    <mxGeometry width="50" height="50" relative="1" as="geometry">
                        <mxPoint x="748" y="306" as="sourcePoint"/>
                        <mxPoint x="798" y="256" as="targetPoint"/>
                    </mxGeometry>
                </mxCell>
                <mxCell id="132" value="1" style="endArrow=none;html=1;" edge="1" parent="1" source="75" target="60">
                    <mxGeometry width="50" height="50" relative="1" as="geometry">
                        <mxPoint x="748" y="306" as="sourcePoint"/>
                        <mxPoint x="811" y="206" as="targetPoint"/>
                    </mxGeometry>
                </mxCell>
                <mxCell id="133" value="Ger" style="rhombus;whiteSpace=wrap;html=1;fontSize=16;" vertex="1" parent="1">
                    <mxGeometry x="607" y="598" width="120" height="80" as="geometry"/>
                </mxCell>
                <mxCell id="134" value="1" style="endArrow=none;html=1;" edge="1" parent="1" source="24" target="133">
                    <mxGeometry width="50" height="50" relative="1" as="geometry">
                        <mxPoint x="534" y="843" as="sourcePoint"/>
                        <mxPoint x="574" y="785" as="targetPoint"/>
                    </mxGeometry>
                </mxCell>
                <mxCell id="135" value="" style="endArrow=none;html=1;" edge="1" parent="1" source="121" target="133">
                    <mxGeometry width="50" height="50" relative="1" as="geometry">
                        <mxPoint x="475" y="584" as="sourcePoint"/>
                        <mxPoint x="645" y="489" as="targetPoint"/>
                        <Array as="points"/>
                    </mxGeometry>
                </mxCell>
                <mxCell id="136" value="N" style="edgeLabel;html=1;align=center;verticalAlign=middle;resizable=0;points=[];" vertex="1" connectable="0" parent="135">
                    <mxGeometry x="0.2347" y="-2" relative="1" as="geometry">
                        <mxPoint as="offset"/>
                    </mxGeometry>
                </mxCell>
                <mxCell id="138" value="&lt;span style=&quot;font-size: 16px;&quot;&gt;Auktionshistorik&lt;/span&gt;" style="rounded=0;whiteSpace=wrap;html=1;" vertex="1" parent="1">
                    <mxGeometry x="150" y="402" width="120" height="60" as="geometry"/>
                </mxCell>
                <mxCell id="139" value="Tidsstampel" style="ellipse;whiteSpace=wrap;html=1;fontSize=16;" vertex="1" parent="1">
                    <mxGeometry x="-305" y="318" width="120" height="80" as="geometry"/>
                </mxCell>
                <mxCell id="140" value="SlutDatum" style="ellipse;whiteSpace=wrap;html=1;fontSize=16;" vertex="1" parent="1">
                    <mxGeometry x="-303" y="537" width="120" height="80" as="geometry"/>
                </mxCell>
                <mxCell id="141" value="SlutgiltigPris" style="ellipse;whiteSpace=wrap;html=1;fontSize=16;" vertex="1" parent="1">
                    <mxGeometry x="-81" y="141" width="120" height="80" as="geometry"/>
                </mxCell>
                <mxCell id="142" value="&lt;u&gt;AuktionID&lt;/u&gt;" style="ellipse;whiteSpace=wrap;html=1;fontSize=16;" vertex="1" parent="1">
                    <mxGeometry x="-317" y="441" width="120" height="80" as="geometry"/>
                </mxCell>
                <mxCell id="143" value="StartDatum" style="ellipse;whiteSpace=wrap;html=1;fontSize=16;" vertex="1" parent="1">
                    <mxGeometry x="-243" y="641" width="120" height="80" as="geometry"/>
                </mxCell>
                <mxCell id="144" value="" style="endArrow=none;html=1;" edge="1" parent="1" source="143" target="138">
                    <mxGeometry width="50" height="50" relative="1" as="geometry">
                        <mxPoint x="-55" y="672" as="sourcePoint"/>
                        <mxPoint x="231" y="374" as="targetPoint"/>
                    </mxGeometry>
                </mxCell>
                <mxCell id="145" value="" style="endArrow=none;html=1;exitX=1;exitY=0;exitDx=0;exitDy=0;" edge="1" parent="1" source="140" target="138">
                    <mxGeometry width="50" height="50" relative="1" as="geometry">
                        <mxPoint x="181" y="424" as="sourcePoint"/>
                        <mxPoint x="231" y="374" as="targetPoint"/>
                    </mxGeometry>
                </mxCell>
                <mxCell id="146" value="" style="endArrow=none;html=1;exitX=1;exitY=0.5;exitDx=0;exitDy=0;" edge="1" parent="1" source="142" target="138">
                    <mxGeometry width="50" height="50" relative="1" as="geometry">
                        <mxPoint x="-172.0512919600942" y="502.6302311928589" as="sourcePoint"/>
                        <mxPoint x="231" y="374" as="targetPoint"/>
                    </mxGeometry>
                </mxCell>
                <mxCell id="147" value="" style="endArrow=none;html=1;" edge="1" parent="1" source="139" target="138">
                    <mxGeometry width="50" height="50" relative="1" as="geometry">
                        <mxPoint x="181" y="424" as="sourcePoint"/>
                        <mxPoint x="231" y="374" as="targetPoint"/>
                    </mxGeometry>
                </mxCell>
                <mxCell id="148" value="Provision" style="ellipse;whiteSpace=wrap;html=1;fontSize=16;" vertex="1" parent="1">
                    <mxGeometry x="-227" y="196" width="120" height="80" as="geometry"/>
                </mxCell>
                <mxCell id="149" value="" style="endArrow=none;html=1;entryX=0.625;entryY=0.017;entryDx=0;entryDy=0;entryPerimeter=0;" edge="1" parent="1" source="148" target="138">
                    <mxGeometry width="50" height="50" relative="1" as="geometry">
                        <mxPoint x="181" y="424" as="sourcePoint"/>
                        <mxPoint x="231" y="374" as="targetPoint"/>
                    </mxGeometry>
                </mxCell>
                <mxCell id="150" value="" style="endArrow=none;html=1;exitX=1;exitY=1;exitDx=0;exitDy=0;entryX=0.75;entryY=0;entryDx=0;entryDy=0;" edge="1" parent="1" source="141" target="138">
                    <mxGeometry width="50" height="50" relative="1" as="geometry">
                        <mxPoint x="313" y="424" as="sourcePoint"/>
                        <mxPoint x="363" y="374" as="targetPoint"/>
                    </mxGeometry>
                </mxCell>
                <mxCell id="151" value="" style="endArrow=none;html=1;exitX=1;exitY=0.25;exitDx=0;exitDy=0;" edge="1" parent="1" source="138" target="26">
                    <mxGeometry width="50" height="50" relative="1" as="geometry">
                        <mxPoint x="421" y="453" as="sourcePoint"/>
                        <mxPoint x="219" y="46" as="targetPoint"/>
                    </mxGeometry>
                </mxCell>
                <mxCell id="152" value="" style="endArrow=none;html=1;" edge="1" parent="1" source="138">
                    <mxGeometry width="50" height="50" relative="1" as="geometry">
                        <mxPoint x="273" y="481" as="sourcePoint"/>
                        <mxPoint x="841" y="425" as="targetPoint"/>
                    </mxGeometry>
                </mxCell>
                <mxCell id="153" value="Unsold" style="rounded=0;whiteSpace=wrap;html=1;" vertex="1" parent="1">
                    <mxGeometry x="-513" y="923" width="120" height="60" as="geometry"/>
                </mxCell>
                <mxCell id="154" value="email_table" style="rounded=0;whiteSpace=wrap;html=1;" vertex="1" parent="1">
                    <mxGeometry x="-127" y="1020" width="120" height="60" as="geometry"/>
                </mxCell>
                <mxCell id="155" value="AuktıonId" style="ellipse;whiteSpace=wrap;html=1;fontSize=16;" vertex="1" parent="1">
                    <mxGeometry x="-732" y="952" width="120" height="80" as="geometry"/>
                </mxCell>
                <mxCell id="156" value="StartDatum" style="ellipse;whiteSpace=wrap;html=1;fontSize=16;" vertex="1" parent="1">
                    <mxGeometry x="-686" y="1091" width="120" height="80" as="geometry"/>
                </mxCell>
                <mxCell id="157" value="&lt;u&gt;ID&lt;/u&gt;" style="ellipse;whiteSpace=wrap;html=1;fontSize=16;" vertex="1" parent="1">
                    <mxGeometry x="-224" y="1184" width="120" height="80" as="geometry"/>
                </mxCell>
                <mxCell id="158" value="message" style="ellipse;whiteSpace=wrap;html=1;fontSize=16;" vertex="1" parent="1">
                    <mxGeometry x="-46" y="1174" width="120" height="80" as="geometry"/>
                </mxCell>
                <mxCell id="159" value="StartDatum" style="ellipse;whiteSpace=wrap;html=1;fontSize=16;" vertex="1" parent="1">
                    <mxGeometry x="-556" y="1140" width="120" height="80" as="geometry"/>
                </mxCell>
                <mxCell id="160" value="ProduktID" style="ellipse;whiteSpace=wrap;html=1;fontSize=16;" vertex="1" parent="1">
                    <mxGeometry x="-381" y="1100" width="120" height="80" as="geometry"/>
                </mxCell>
                <mxCell id="163" value="" style="endArrow=none;html=1;" edge="1" parent="1" source="157" target="154">
                    <mxGeometry width="50" height="50" relative="1" as="geometry">
                        <mxPoint x="82" y="869" as="sourcePoint"/>
                        <mxPoint x="132" y="819" as="targetPoint"/>
                    </mxGeometry>
                </mxCell>
                <mxCell id="164" value="" style="endArrow=none;html=1;entryX=0.5;entryY=0;entryDx=0;entryDy=0;" edge="1" parent="1" source="154" target="158">
                    <mxGeometry width="50" height="50" relative="1" as="geometry">
                        <mxPoint x="110" y="1144" as="sourcePoint"/>
                        <mxPoint x="132" y="819" as="targetPoint"/>
                    </mxGeometry>
                </mxCell>
                <mxCell id="166" value="" style="endArrow=none;html=1;" edge="1" parent="1" source="156" target="153">
                    <mxGeometry width="50" height="50" relative="1" as="geometry">
                        <mxPoint x="82" y="869" as="sourcePoint"/>
                        <mxPoint x="132" y="819" as="targetPoint"/>
                    </mxGeometry>
                </mxCell>
                <mxCell id="167" value="" style="endArrow=none;html=1;" edge="1" parent="1" source="155" target="153">
                    <mxGeometry width="50" height="50" relative="1" as="geometry">
                        <mxPoint x="82" y="869" as="sourcePoint"/>
                        <mxPoint x="132" y="819" as="targetPoint"/>
                    </mxGeometry>
                </mxCell>
                <mxCell id="169" value="" style="endArrow=none;html=1;" edge="1" parent="1" source="159" target="153">
                    <mxGeometry width="50" height="50" relative="1" as="geometry">
                        <mxPoint x="82" y="869" as="sourcePoint"/>
                        <mxPoint x="132" y="819" as="targetPoint"/>
                    </mxGeometry>
                </mxCell>
                <mxCell id="170" value="" style="endArrow=none;html=1;entryX=0.315;entryY=0.05;entryDx=0;entryDy=0;entryPerimeter=0;" edge="1" parent="1" source="153" target="160">
                    <mxGeometry width="50" height="50" relative="1" as="geometry">
                        <mxPoint x="82" y="869" as="sourcePoint"/>
                        <mxPoint x="132" y="819" as="targetPoint"/>
                    </mxGeometry>
                </mxCell>
            </root>
        </mxGraphModel>
    </diagram>
</mxfile>